<?xml version="1.0" encoding="UTF-8" standalone="no"?>
<!DOCTYPE svg PUBLIC "-//W3C//DTD SVG 1.1//EN" "http://www.w3.org/Graphics/SVG/1.1/DTD/svg11.dtd">
<svg width="100%" height="100%" viewBox="0 0 1355 1521" version="1.1" xmlns="http://www.w3.org/2000/svg" xmlns:xlink="http://www.w3.org/1999/xlink" xml:space="preserve" xmlns:serif="http://www.serif.com/" style="fill-rule:evenodd;clip-rule:evenodd;stroke-linejoin:round;stroke-miterlimit:2;">
    <g transform="matrix(4.16667,0,0,4.16667,0,0)">
        <path d="M324.741,107.31C324.738,101.173 323.426,95.75 320.771,91.096C318.164,86.519 314.259,82.683 309.022,79.65C265.787,54.721 222.511,29.868 179.291,4.913C167.639,-1.814 156.342,-1.568 144.776,5.255C127.568,15.404 41.41,64.765 15.737,79.636C5.163,85.756 0.019,95.124 0.016,107.299C0,157.432 0.016,207.565 0,257.701C0.002,263.703 1.259,269.021 3.796,273.605C6.405,278.32 10.364,282.262 15.723,285.364C41.398,300.234 127.566,349.592 144.771,359.743C156.342,366.57 167.639,366.814 179.295,360.085C222.516,335.129 265.795,310.277 309.036,285.349C314.394,282.248 318.353,278.304 320.962,273.592C323.496,269.008 324.755,263.69 324.757,257.686C324.757,257.686 324.757,157.445 324.741,107.31Z" style="fill:rgb(155,73,147);fill-rule:nonzero;"/>
        <path d="M162.875,182.011L3.796,273.605C6.405,278.32 10.364,282.262 15.723,285.364C41.398,300.234 127.566,349.592 144.771,359.743C156.342,366.57 167.639,366.814 179.295,360.085C222.516,335.129 265.795,310.277 309.036,285.349C314.394,282.248 318.353,278.304 320.962,273.592L162.875,182.011Z" style="fill:rgb(105,40,118);fill-rule:nonzero;"/>
        <path d="M115.758,209.142C125.015,225.302 142.417,236.202 162.379,236.202C182.464,236.202 199.965,225.164 209.174,208.831L162.875,182.011L115.758,209.142Z" style="fill:rgb(105,40,118);fill-rule:nonzero;"/>
        <path d="M324.741,107.31C324.738,101.173 323.426,95.75 320.771,91.096L162.875,182.011L320.962,273.592C323.496,269.008 324.755,263.69 324.757,257.686C324.757,257.686 324.757,157.445 324.741,107.31Z" style="fill:rgb(130,47,133);fill-rule:nonzero;"/>
        <path d="M209.174,208.831C199.965,225.164 182.464,236.202 162.379,236.202C142.417,236.202 125.015,225.302 115.758,209.142C111.261,201.289 108.676,192.198 108.676,182.499C108.676,152.84 132.72,128.797 162.379,128.797C182.212,128.797 199.523,139.561 208.825,155.556L255.764,128.526C237.107,96.321 202.275,74.653 162.379,74.653C102.815,74.653 54.531,122.938 54.531,182.499C54.531,202.039 59.729,220.363 68.815,236.169C87.425,268.545 122.357,290.346 162.379,290.346C202.474,290.346 237.461,268.458 256.044,235.986L209.174,208.831Z" style="fill:white;fill-rule:nonzero;"/>
        <rect x="257.82" y="157" width="10.667" height="51.666" style="fill:white;fill-rule:nonzero;"/>
        <rect x="281.487" y="157" width="10.666" height="51.666" style="fill:white;fill-rule:nonzero;"/>
        <rect x="249.153" y="165.666" width="51.667" height="10.667" style="fill:white;fill-rule:nonzero;"/>
        <rect x="249.153" y="189.333" width="51.667" height="10.667" style="fill:white;fill-rule:nonzero;"/>
    </g>
</svg>
