<svg width="44" height="44" viewBox="0 0 44 44" fill="none" xmlns="http://www.w3.org/2000/svg">
<path d="M0 6.875C0 3.07804 3.07804 0 6.875 0H37.125C40.922 0 44 3.07804 44 6.875V37.125C44 40.922 40.922 44 37.125 44H6.875C3.07804 44 0 40.922 0 37.125V6.875Z" fill="#FFD02F"/>
<path fill-rule="evenodd" clip-rule="evenodd" d="M30.4315 5.5H25.6022L29.6266 12.5714L20.773 5.5H15.9437L20.3705 14.1429L11.1144 5.5H6.28516L11.1144 16.5L6.28516 38.5H11.1144L20.3705 14.9286L15.9437 38.5H20.773L29.6266 13.3571L25.6022 38.5H30.4315L39.2852 11L30.4315 5.5Z" fill="#050038"/>
</svg>
